<?xml version="1.0" encoding="UTF-8" standalone="no"?>
<!-- Created with Inkscape (http://www.inkscape.org/) -->

<svg
   version="1.1"
   id="svg2"
   width="52.913334"
   height="52.913334"
   viewBox="0 0 52.913334 52.913334"
   sodipodi:docname="MOGA LOGO.ai"
   xmlns:inkscape="http://www.inkscape.org/namespaces/inkscape"
   xmlns:sodipodi="http://sodipodi.sourceforge.net/DTD/sodipodi-0.dtd"
   xmlns="http://www.w3.org/2000/svg"
   xmlns:svg="http://www.w3.org/2000/svg">
  <defs
     id="defs6">
    <clipPath
       clipPathUnits="userSpaceOnUse"
       id="clipPath16">
      <path
         d="M 0,39.685 H 39.685 V 0 H 0 Z"
         id="path14" />
    </clipPath>
  </defs>
  <sodipodi:namedview
     id="namedview4"
     pagecolor="#ffffff"
     bordercolor="#000000"
     borderopacity="0.25"
     inkscape:showpageshadow="2"
     inkscape:pageopacity="0.0"
     inkscape:pagecheckerboard="0"
     inkscape:deskcolor="#d1d1d1" />
  <g
     id="g8"
     inkscape:groupmode="layer"
     inkscape:label="MOGA LOGO"
     transform="matrix(1.3333333,0,0,-1.3333333,0,52.913333)">
    <g
       id="g10">
      <g
         id="g12"
         clip-path="url(#clipPath16)">
        <g
           id="g18"
           transform="translate(26.5228,27.4869)">
          <path
             d="m 0,0 c -3.891,0.386 -6.003,-3.647 -8.092,-6.215 -2.357,-2.899 -7.694,-5.034 -7.997,-9.155 -0.173,-2.356 1.7,-4.026 3.802,-4.663 3.194,-0.967 7.428,-0.186 10.333,1.32 1.963,1.017 3.671,2.606 4.594,4.615 1.422,3.093 0.848,6.692 0.248,10.042 -0.172,0.961 -0.305,1.948 -0.774,2.82 C 1.689,-0.448 0.86,-0.09 0,0"
             style="fill:none;stroke:#3f3b3a;stroke-width:0.75;stroke-linecap:round;stroke-linejoin:round;stroke-miterlimit:4;stroke-dasharray:none;stroke-opacity:1"
             id="path20" />
        </g>
        <g
           id="g22"
           transform="translate(26.7113,31.7374)">
          <path
             d="M 0,0 C -1.238,-2.373 -2.21,-4.87 -2.12,-7.589"
             style="fill:none;stroke:#3f3b3a;stroke-width:0.75;stroke-linecap:round;stroke-linejoin:round;stroke-miterlimit:4;stroke-dasharray:none;stroke-opacity:1"
             id="path24" />
        </g>
        <g
           id="g26"
           transform="translate(20.3353,20.1403)">
          <path
             d="M 0,0 0.1,-0.191"
             style="fill:none;stroke:#3f3b3a;stroke-width:0.75;stroke-linecap:round;stroke-linejoin:round;stroke-miterlimit:4;stroke-dasharray:none;stroke-opacity:1"
             id="path28" />
        </g>
        <g
           id="g30"
           transform="translate(24.1429,20.5475)">
          <path
             d="M 0,0 C 0.044,-0.27 0.044,-0.27 0.087,-0.539"
             style="fill:none;stroke:#3f3b3a;stroke-width:0.75;stroke-linecap:round;stroke-linejoin:round;stroke-miterlimit:4;stroke-dasharray:none;stroke-opacity:1"
             id="path32" />
        </g>
        <g
           id="g34"
           transform="translate(22.5629,20.2794)">
          <path
             d="M 0,0 C -0.274,-1.138 -0.761,-2.194 -1.175,-3.282"
             style="fill:none;stroke:#3f3b3a;stroke-width:0.75;stroke-linecap:round;stroke-linejoin:round;stroke-miterlimit:4;stroke-dasharray:none;stroke-opacity:1"
             id="path36" />
        </g>
        <g
           id="g38"
           transform="translate(17.1927,14.9152)">
          <path
             d="M 0,0 C 2.563,-0.93 5.46,-0.495 7.689,1.151"
             style="fill:none;stroke:#3f3b3a;stroke-width:0.75;stroke-linecap:round;stroke-linejoin:round;stroke-miterlimit:4;stroke-dasharray:none;stroke-opacity:1"
             id="path40" />
        </g>
      </g>
    </g>
  </g>
</svg>
