<svg width="149" height="149" viewBox="0 0 149 149" fill="none" xmlns="http://www.w3.org/2000/svg">
<circle cx="74.0506" cy="74.0506" r="74.0506" fill="#F8F8F9"/>
<path d="M100.002 77.6394H95.3857V75.7301H95.2717C94.3598 77.2974 92.935 78.0383 91.0543 78.0383C87.0505 78.0383 84.2294 74.7043 84.2436 70.2873C84.2294 65.8704 87.0505 62.5363 91.0543 62.5363C92.935 62.5363 94.3598 63.2772 95.2717 64.8445H95.3857V56.2785H100.002V77.6394ZM92.1656 73.8494C94.1176 73.8636 95.4997 72.3818 95.4997 70.2873C95.4997 68.1928 94.1176 66.711 92.1656 66.7253C90.2279 66.711 88.8458 68.1928 88.86 70.2873C88.8458 72.3818 90.2279 73.8636 92.1656 73.8494Z" fill="#31353D"/>
<path d="M66.2966 77.6394V56.2785H70.913V64.8445H71.027C71.9246 63.2772 73.3637 62.5363 75.2444 62.5363C79.2339 62.5363 82.0551 65.8704 82.0551 70.2873C82.0551 74.7043 79.2339 78.0383 75.2444 78.0383C73.3637 78.0383 71.9246 77.2974 71.027 75.7301H70.913V77.6394H66.2966ZM74.1331 73.8494C76.0566 73.8636 77.4387 72.3818 77.4387 70.2873C77.4387 68.1928 76.0566 66.711 74.1331 66.7253C72.1668 66.711 70.7847 68.1928 70.799 70.2873C70.7847 72.3818 72.1668 73.8636 74.1331 73.8494Z" fill="#31353D"/>
<path d="M48.1329 83.7946V62.9352H52.7494V64.8445H52.8633C53.761 63.2772 55.2001 62.5363 57.0808 62.5363C61.0703 62.5363 63.8915 65.8704 63.8915 70.2873C63.8915 74.7043 61.0703 78.0383 57.0808 78.0383C55.2001 78.0383 53.761 77.2974 52.8633 75.7301H52.7494V83.7946H48.1329ZM55.9695 73.8494C57.893 73.8636 59.275 72.3818 59.275 70.2873C59.275 68.1928 57.893 66.711 55.9695 66.7253C54.0032 66.711 52.6211 68.1928 52.6354 70.2873C52.6211 72.3818 54.0032 73.8636 55.9695 73.8494Z" fill="#31353D"/>
<rect x="48.1329" y="86.9178" width="51.7951" height="4.37705" fill="#31353D"/>
</svg>
